<svg viewBox="0 0 200 200" xmlns="http://www.w3.org/2000/svg">
  <!-- Leaf container background -->
  <g id="logo">
    <!-- Top orange bars (sustainability indicator) -->
    <rect x="85" y="20" width="8" height="25" fill="#FFA500" rx="2"/>
    <rect x="75" y="28" width="8" height="22" fill="#FFA500" rx="2"/>
    <rect x="95" y="28" width="8" height="22" fill="#FFA500" rx="2"/>
    
    <!-- Main leaf shape - dark green -->
    <!-- Left leaf -->
    <path d="M 65 65 Q 55 75 50 90 Q 48 100 55 110 Q 65 100 70 85 Z" fill="#1B7A3E"/>
    <path d="M 65 65 Q 75 75 80 90 Q 82 100 75 110 Q 65 100 60 85 Z" fill="#1B7A3E"/>
    
    <!-- Center leaf -->
    <path d="M 95 50 Q 90 70 92 90 Q 95 110 100 130 L 108 130 Q 105 110 102 90 Q 100 70 105 50 Z" fill="#1B7A3E"/>
    
    <!-- Right leaf -->
    <path d="M 130 65 Q 120 75 115 90 Q 113 100 120 110 Q 130 100 135 85 Z" fill="#1B7A3E"/>
    <path d="M 130 65 Q 140 75 145 90 Q 147 100 140 110 Q 130 100 125 85 Z" fill="#1B7A3E"/>
    
    <!-- Bottom left curved section -->
    <path d="M 50 120 Q 45 135 50 150 Q 70 160 85 155 Q 80 145 75 135 Z" fill="#1B7A3E"/>
    
    <!-- Bottom right curved section -->
    <path d="M 150 120 Q 155 135 150 150 Q 130 160 115 155 Q 120 145 125 135 Z" fill="#1B7A3E"/>
    
    <!-- Bottom left orange dot -->
    <circle cx="65" cy="165" r="6" fill="#FFA500"/>
    
    <!-- Bottom right orange dot -->
    <circle cx="135" cy="165" r="6" fill="#FFA500"/>
  </g>
</svg>